<?xml version="1.0" encoding="UTF-8" standalone="no"?>
<!DOCTYPE svg PUBLIC "-//W3C//DTD SVG 20010904//EN"
"http://www.w3.org/TR/2001/REC-SVG-20010904/DTD/svg10.dtd">
<!-- Created with Inkscape ("http://www.inkscape.org/") -->
<svg
   id="svg598"
   sodipodi:version="0.32"
   inkscape:version="0.36"
   width="210mm"
   height="297mm"
   sodipodi:docbase="/homes/np2"
   sodipodi:docname="/homes/np2/jmock-logo.svg"
   xmlns="http://www.w3.org/2000/svg"
   xmlns:inkscape="http://www.inkscape.org/namespaces/inkscape"
   xmlns:sodipodi="http://sodipodi.sourceforge.net/DTD/sodipodi-0.dtd"
   xmlns:xml="http://www.w3.org/XML/1998/namespace"
   xmlns:xlink="http://www.w3.org/1999/xlink">
  <defs
     id="defs600" />
  <sodipodi:namedview
     id="base" />
  <text
     xml:space="preserve"
     style="font-size:72;font-weight:bold;stroke-width:3pt;font-family:Bitstream Charter;"
     x="67.5358101"
     y="99.9387504"
     id="text847"
     sodipodi:linespacing="100%"
     transform="matrix(2.346891,0.000000,0.000000,2.346890,70.15748,286.4763)"><tspan
   x="67.5358124"
   y="99.9387512"
   sodipodi:role="line"
   id="tspan848"
   style="fill:#000000;fill-opacity:1;">Mock</tspan>
</text>
  <path
     style="font-size:12;fill:#000066;fill-rule:evenodd;stroke-width:3pt;"
     d="M 167.465 178.238 C 167.465 209.703 141.928 235.241 110.463 235.241 C 78.9981 235.241 53.4601 209.703 53.4601 178.238 C 53.4601 146.772 78.9981 121.235 110.463 121.235 C 141.928 121.235 167.465 146.772 167.465 178.238 z M 131.188 117.035 C 124.673 117.035 119.786 121.922 119.786 128.141 C 119.786 133.62 123.784 137.619 129.855 137.619 C 136.222 137.619 141.109 132.732 141.109 126.512 C 141.109 120.737 137.407 117.035 131.188 117.035 z M 116.232 163.829 L 109.272 210.772 C 106.755 227.505 104.534 238.907 99.7947 244.831 L 82.4691 237.871 C 79.2111 239.5 77.4341 242.461 77.4341 246.756 C 77.4341 252.235 81.4331 255.789 87.5041 255.789 C 94.6121 255.789 103.645 250.606 113.271 240.092 C 123.34 228.986 125.561 216.251 127.931 201.146 L 135.926 151.094 L 129.411 151.094 L 102.905 156.573 L 102.905 161.904 L 116.232 163.829 z "
     id="path880"
     transform="translate(70.15748,286.4763)" />
</svg>
